<svg width="50" height="50" viewBox="0 0 50 50" fill="none" xmlns="http://www.w3.org/2000/svg">
<g id="Github">
<circle id="Ellipse 1" cx="25" cy="25" r="24" fill="white" fill-opacity="0" stroke="black"/>
<g id="Fill-4">
<path d="M25.0002 1C11.747 1 1 11.7921 1 25.1054C1 35.7558 7.87679 44.7916 17.4128 47.979C18.6123 48.2021 19.0526 47.4561 19.0526 46.8194C19.0526 46.2446 19.0304 44.3457 19.02 42.3314C12.3431 43.7896 10.9342 39.4873 10.9342 39.4873C9.84249 36.7011 8.26945 35.9602 8.26945 35.9602C6.09191 34.4641 8.43359 34.4948 8.43359 34.4948C10.8436 34.6649 12.1126 36.9789 12.1126 36.9789C14.2532 40.6641 17.7272 39.5987 19.0967 38.9828C19.3121 37.4248 19.9341 36.3614 20.6205 35.7594C15.2897 35.1499 9.6859 33.0829 9.6859 23.8464C9.6859 21.2147 10.6234 19.0643 12.1587 17.3762C11.9095 16.769 11.088 14.3173 12.3912 10.997C12.3912 10.997 14.4066 10.3491 18.993 13.4679C20.9074 12.9338 22.9606 12.6659 25.0002 12.6567C27.0398 12.6659 29.0946 12.9338 31.0126 13.4679C35.5934 10.3491 37.606 10.997 37.606 10.997C38.9124 14.3173 38.0905 16.769 37.8413 17.3762C39.3801 19.0643 40.3113 21.2147 40.3113 23.8464C40.3113 33.1049 34.6968 35.1435 29.3525 35.7403C30.2133 36.4883 30.9804 37.9553 30.9804 40.2042C30.9804 43.4296 30.9526 46.0254 30.9526 46.8194C30.9526 47.4609 31.3846 48.2125 32.6011 47.9758C42.132 44.7848 49 35.7522 49 25.1054C49 11.7921 38.2546 1 25.0002 1" fill="white"/>
<path d="M25.0002 1C11.747 1 1 11.7921 1 25.1054C1 35.7558 7.87679 44.7916 17.4128 47.979C18.6123 48.2021 19.0526 47.4561 19.0526 46.8194C19.0526 46.2446 19.0304 44.3457 19.02 42.3314C12.3431 43.7896 10.9342 39.4873 10.9342 39.4873C9.84249 36.7011 8.26945 35.9602 8.26945 35.9602C6.09191 34.4641 8.43359 34.4948 8.43359 34.4948C10.8436 34.6649 12.1126 36.9789 12.1126 36.9789C14.2532 40.6641 17.7272 39.5987 19.0967 38.9828C19.3121 37.4248 19.9341 36.3614 20.6205 35.7594C15.2897 35.1499 9.6859 33.0829 9.6859 23.8464C9.6859 21.2147 10.6234 19.0643 12.1587 17.3762C11.9095 16.769 11.088 14.3173 12.3912 10.997C12.3912 10.997 14.4066 10.3491 18.993 13.4679C20.9074 12.9338 22.9606 12.6659 25.0002 12.6567C27.0398 12.6659 29.0946 12.9338 31.0126 13.4679C35.5934 10.3491 37.606 10.997 37.606 10.997C38.9124 14.3173 38.0905 16.769 37.8413 17.3762C39.3801 19.0643 40.3113 21.2147 40.3113 23.8464C40.3113 33.1049 34.6968 35.1435 29.3525 35.7403C30.2133 36.4883 30.9804 37.9553 30.9804 40.2042C30.9804 43.4296 30.9526 46.0254 30.9526 46.8194C30.9526 47.4609 31.3846 48.2125 32.6011 47.9758C42.132 44.7848 49 35.7522 49 25.1054C49 11.7921 38.2546 1 25.0002 1" stroke="black"/>
</g>
<g id="gitdots ">
<path id="Fill-5" d="M10.1611 36.4447C10.1083 36.5633 9.92109 36.5988 9.75051 36.5174C9.57676 36.4396 9.47918 36.2779 9.53551 36.1589C9.58708 36.0368 9.77471 36.0028 9.94807 36.0846C10.1222 36.1625 10.2214 36.3257 10.1611 36.4447" fill="white"/>
<path id="Fill-6" d="M11.1313 37.523C11.017 37.6285 10.7937 37.5795 10.6422 37.4127C10.4855 37.2463 10.4561 37.0238 10.572 36.9167C10.6898 36.8111 10.9064 36.8605 11.0635 37.0269C11.2202 37.1953 11.2507 37.4162 11.1313 37.523" fill="white"/>
<path id="Fill-7" d="M12.0755 38.8976C11.9287 38.9991 11.6887 38.9039 11.5404 38.6916C11.3936 38.4794 11.3936 38.2249 11.5435 38.1229C11.6923 38.0209 11.9287 38.1126 12.0791 38.3233C12.2254 38.5391 12.2254 38.7936 12.0755 38.8976" fill="white"/>
<path id="Fill-8" d="M13.3698 40.2256C13.2385 40.3698 12.9588 40.3311 12.7541 40.1343C12.5446 39.9418 12.4863 39.6687 12.618 39.5244C12.7509 39.3797 13.0322 39.4205 13.2385 39.6157C13.4463 39.8078 13.5098 40.0829 13.3698 40.2256" fill="white"/>
<path id="Fill-9" d="M15.1549 40.9967C15.097 41.1836 14.8276 41.2686 14.5563 41.1892C14.2853 41.1073 14.108 40.8884 14.1628 40.6995C14.2191 40.5113 14.4896 40.4228 14.763 40.5078C15.0335 40.5892 15.2112 40.8066 15.1549 40.9967" fill="white"/>
<path id="Fill-10" d="M17.1154 41.1397C17.1221 41.3366 16.892 41.4998 16.6072 41.5033C16.3208 41.5097 16.0891 41.3504 16.0859 41.1567C16.0859 40.9579 16.3109 40.7963 16.5973 40.7915C16.8821 40.786 17.1154 40.9441 17.1154 41.1397" fill="white"/>
<path id="Fill-11" d="M18.9398 40.8303C18.9739 41.0224 18.776 41.2196 18.4931 41.2722C18.2151 41.3227 17.9576 41.2042 17.9223 41.0137C17.8878 40.8168 18.0893 40.6196 18.367 40.5686C18.6502 40.5196 18.9037 40.635 18.9398 40.8303" fill="white"/>
</g>
</g>
</svg>
