<svg width="50" height="50" viewBox="0 0 50 50" fill="none" xmlns="http://www.w3.org/2000/svg">
<g id="Gmail">
<circle id="Ellipse 3" cx="25" cy="25" r="24" fill="white" fill-opacity="0"/>
<g id="Shape">
<path fill-rule="evenodd" clip-rule="evenodd" d="M25 1C11.7452 1 1 11.7452 1 25C1 38.2548 11.7452 49 25 49C38.2548 49 49 38.2548 49 25C49 11.7452 38.2548 1 25 1ZM24.9639 27.0193L15.9987 20.5115V34.23H14.5009C13.6664 34.23 13.0031 33.5667 13.0031 32.7322V17.562C13.0031 17.4985 13.007 17.4389 13.0144 17.3831C13.0416 17.1451 13.1284 16.9122 13.2813 16.7061C13.7734 16.0428 14.7363 15.893 15.421 16.3851L24.9853 23.3391L34.6138 16.2996C35.2771 15.8074 36.2186 15.9572 36.7107 16.6419C36.9723 16.9945 37.0525 17.4256 36.9674 17.8261V32.7536C36.9674 33.5667 36.3041 34.23 35.4697 34.23H33.9719V20.4788L24.9639 27.0193Z" fill="white"/>
<path d="M24.9639 27.0193L24.6702 27.4239L24.9639 27.6372L25.2577 27.4239L24.9639 27.0193ZM15.9987 20.5115L16.2924 20.1069L15.4987 19.5307V20.5115H15.9987ZM15.9987 34.23V34.73H16.4987V34.23H15.9987ZM13.0144 17.3831L13.5101 17.4488L13.5112 17.4399L13.0144 17.3831ZM13.2813 16.7061L12.8797 16.4082L12.8797 16.4082L13.2813 16.7061ZM15.421 16.3851L15.715 15.9807L15.7128 15.9791L15.421 16.3851ZM24.9853 23.3391L24.6913 23.7435L24.9861 23.9579L25.2804 23.7427L24.9853 23.3391ZM34.6138 16.2996L34.9089 16.7032L34.9118 16.7011L34.6138 16.2996ZM36.7107 16.6419L36.3046 16.9337L36.3091 16.9398L36.7107 16.6419ZM36.9674 17.8261L36.4783 17.7222L36.4674 17.7736V17.8261H36.9674ZM33.9719 34.23H33.4719V34.73H33.9719V34.23ZM33.9719 20.4788H34.4719V19.4979L33.6781 20.0742L33.9719 20.4788ZM25 0.5C11.4691 0.5 0.5 11.4691 0.5 25H1.5C1.5 12.0213 12.0213 1.5 25 1.5V0.5ZM0.5 25C0.5 38.5309 11.4691 49.5 25 49.5V48.5C12.0213 48.5 1.5 37.9787 1.5 25H0.5ZM25 49.5C38.5309 49.5 49.5 38.5309 49.5 25H48.5C48.5 37.9787 37.9787 48.5 25 48.5V49.5ZM49.5 25C49.5 11.4691 38.5309 0.5 25 0.5V1.5C37.9787 1.5 48.5 12.0213 48.5 25H49.5ZM25.2576 26.6147L16.2924 20.1069L15.705 20.9161L24.6702 27.4239L25.2576 26.6147ZM15.4987 20.5115V34.23H16.4987V20.5115H15.4987ZM15.9987 33.73H14.5009V34.73H15.9987V33.73ZM14.5009 33.73C13.9425 33.73 13.5031 33.2906 13.5031 32.7322H12.5031C12.5031 33.8428 13.3903 34.73 14.5009 34.73V33.73ZM13.5031 32.7322V17.562H12.5031V32.7322H13.5031ZM13.5031 17.562C13.5031 17.5189 13.5057 17.4814 13.5101 17.4488L12.5187 17.3174C12.5083 17.3964 12.5031 17.4781 12.5031 17.562H13.5031ZM13.5112 17.4399C13.5288 17.2856 13.5845 17.1366 13.6829 17.004L12.8797 16.4082C12.6723 16.6878 12.5544 17.0046 12.5176 17.3263L13.5112 17.4399ZM13.6829 17.004C14.0099 16.5632 14.6632 16.4562 15.1292 16.7911L15.7128 15.9791C14.8094 15.3298 13.5369 15.5224 12.8797 16.4082L13.6829 17.004ZM15.127 16.7895L24.6913 23.7435L25.2793 22.9347L15.715 15.9807L15.127 16.7895ZM25.2804 23.7427L34.9089 16.7032L34.3187 15.896L24.6902 22.9355L25.2804 23.7427ZM34.9118 16.7011C35.3464 16.3786 35.9722 16.4711 36.3047 16.9337L37.1167 16.3501C36.465 15.4433 35.2078 15.2362 34.3158 15.8981L34.9118 16.7011ZM36.3091 16.9398C36.4815 17.1721 36.535 17.4556 36.4783 17.7222L37.4565 17.93C37.57 17.3956 37.4631 16.8169 37.1123 16.344L36.3091 16.9398ZM36.4674 17.8261V32.7536H37.4674V17.8261H36.4674ZM36.4674 32.7536C36.4674 33.2859 36.0326 33.73 35.4697 33.73V34.73C36.5756 34.73 37.4674 33.8475 37.4674 32.7536H36.4674ZM35.4697 33.73H33.9719V34.73H35.4697V33.73ZM34.4719 34.23V20.4788H33.4719V34.23H34.4719ZM33.6781 20.0742L24.6701 26.6147L25.2577 27.4239L34.2657 20.8834L33.6781 20.0742Z" fill="black"/>
</g>
</g>
</svg>
