<svg width="50" height="50" viewBox="0 0 50 50" fill="none" xmlns="http://www.w3.org/2000/svg">
<g id="LinkedIN">
<circle id="Ellipse 4" cx="25" cy="25" r="24" fill="white" fill-opacity="0"/>
<g id="Combined-Shape">
<path fill-rule="evenodd" clip-rule="evenodd" d="M1 25C1 11.7452 11.7452 1 25 1C38.2548 1 49 11.7452 49 25C49 38.2548 38.2548 49 25 49C11.7452 49 1 38.2548 1 25ZM17.9605 20.8778H12.5216V37.2196H17.9605V20.8778ZM18.3188 15.8227C18.2835 14.2204 17.1377 13 15.277 13C13.4164 13 12.2 14.2204 12.2 15.8227C12.2 17.3918 13.3805 18.6473 15.2064 18.6473H15.2412C17.1377 18.6473 18.3188 17.3918 18.3188 15.8227ZM37.5754 27.8497C37.5754 22.8303 34.8922 20.4941 31.3131 20.4941C28.4254 20.4941 27.1326 22.0802 26.4107 23.1929V20.8783H20.9711C21.0428 22.4117 20.9711 37.22 20.9711 37.22H26.4107V28.0934C26.4107 27.605 26.446 27.1178 26.5898 26.7681C26.9829 25.7924 27.8779 24.7822 29.3805 24.7822C31.3494 24.7822 32.1365 26.2807 32.1365 28.4767V37.2196H37.5752L37.5754 27.8497Z" fill="white"/>
<path d="M17.9605 20.8778H18.4605V20.3778H17.9605V20.8778ZM12.5216 20.8778V20.3778H12.0216V20.8778H12.5216ZM12.5216 37.2196H12.0216V37.7196H12.5216V37.2196ZM17.9605 37.2196V37.7196H18.4605V37.2196H17.9605ZM18.3188 15.8227L18.8189 15.8227L18.8186 15.8117L18.3188 15.8227ZM37.5754 27.8497L38.0754 27.8497V27.8497H37.5754ZM26.4107 23.1929H25.9107V24.8823L26.8301 23.4651L26.4107 23.1929ZM26.4107 20.8783H26.9107V20.3783H26.4107V20.8783ZM20.9711 20.8783V20.3783H20.4472L20.4716 20.9016L20.9711 20.8783ZM20.9711 37.22L20.4711 37.2176L20.4687 37.72H20.9711V37.22ZM26.4107 37.22V37.72H26.9107V37.22H26.4107ZM26.5898 26.7681L27.0522 26.9583L27.0536 26.955L26.5898 26.7681ZM32.1365 37.2196H31.6365V37.7196H32.1365V37.2196ZM37.5752 37.2196V37.7196H38.0752L38.0752 37.2196L37.5752 37.2196ZM1.5 25C1.5 12.0213 12.0213 1.5 25 1.5V0.5C11.469 0.5 0.5 11.469 0.5 25H1.5ZM25 1.5C37.9787 1.5 48.5 12.0213 48.5 25H49.5C49.5 11.469 38.531 0.5 25 0.5V1.5ZM48.5 25C48.5 37.9787 37.9787 48.5 25 48.5V49.5C38.531 49.5 49.5 38.531 49.5 25H48.5ZM25 48.5C12.0213 48.5 1.5 37.9787 1.5 25H0.5C0.5 38.531 11.469 49.5 25 49.5V48.5ZM17.9605 20.3778H12.5216V21.3778H17.9605V20.3778ZM12.0216 20.8778V37.2196H13.0216V20.8778H12.0216ZM12.5216 37.7196H17.9605V36.7196H12.5216V37.7196ZM18.4605 37.2196V20.8778H17.4605V37.2196H18.4605ZM18.8186 15.8117C18.7984 14.892 18.4571 14.0565 17.8297 13.4508C17.2014 12.8442 16.3198 12.5 15.277 12.5V13.5C16.0949 13.5 16.7165 13.766 17.1351 14.1702C17.5546 14.5752 17.8038 15.1511 17.8189 15.8337L18.8186 15.8117ZM15.277 12.5C14.2357 12.5 13.3387 12.8431 12.698 13.4465C12.0563 14.0508 11.7 14.8904 11.7 15.8227H12.7C12.7 15.1527 12.9519 14.581 13.3836 14.1745C13.8162 13.7671 14.4577 13.5 15.277 13.5V12.5ZM11.7 15.8227C11.7 17.68 13.1166 19.1473 15.2064 19.1473V18.1473C13.6444 18.1473 12.7 17.1036 12.7 15.8227H11.7ZM15.2064 19.1473H15.2412V18.1473H15.2064V19.1473ZM15.2412 19.1473C16.3024 19.1473 17.2007 18.7941 17.8371 18.1845C18.4731 17.5751 18.8188 16.7361 18.8188 15.8227H17.8188C17.8188 16.4784 17.5739 17.0517 17.1452 17.4624C16.7169 17.8728 16.0765 18.1473 15.2412 18.1473V19.1473ZM38.0754 27.8497C38.0754 25.2538 37.3807 23.2797 36.1538 21.9505C34.9233 20.6174 33.2139 19.9941 31.3131 19.9941V20.9941C32.9915 20.9941 34.4131 21.5389 35.419 22.6287C36.4285 23.7225 37.0754 25.4262 37.0754 27.8497H38.0754ZM31.3131 19.9941C29.7701 19.9941 28.6252 20.4203 27.7653 21.015C26.9127 21.6047 26.3667 22.342 25.9912 22.9208L26.8301 23.4651C27.1765 22.9312 27.6379 22.3191 28.3341 21.8375C29.023 21.361 29.9685 20.9941 31.3131 20.9941V19.9941ZM26.9107 23.1929V20.8783H25.9107V23.1929H26.9107ZM26.4107 20.3783H20.9711V21.3783H26.4107V20.3783ZM20.4716 20.9016C20.5067 21.6523 20.507 25.7185 20.498 29.623C20.4935 31.5695 20.4868 33.4682 20.4812 34.8803C20.4784 35.5863 20.4759 36.1706 20.474 36.5785C20.4731 36.7824 20.4724 36.9422 20.4719 37.051C20.4716 37.1054 20.4714 37.147 20.4713 37.1751C20.4712 37.1891 20.4712 37.1997 20.4712 37.2069C20.4711 37.2104 20.4711 37.2131 20.4711 37.2149C20.4711 37.2158 20.4711 37.2165 20.4711 37.2169C20.4711 37.2171 20.4711 37.2173 20.4711 37.2174C20.4711 37.2175 20.4711 37.2176 20.9711 37.22C21.4711 37.2224 21.4711 37.2224 21.4711 37.2222C21.4711 37.2221 21.4711 37.222 21.4711 37.2217C21.4711 37.2213 21.4711 37.2206 21.4711 37.2197C21.4711 37.2179 21.4711 37.2152 21.4711 37.2117C21.4712 37.2045 21.4712 37.1939 21.4713 37.1798C21.4714 37.1518 21.4716 37.1101 21.4719 37.0556C21.4724 36.9468 21.4731 36.7869 21.474 36.5829C21.4759 36.175 21.4784 35.5904 21.4812 34.8842C21.4868 33.4718 21.4935 31.5726 21.498 29.6253C21.5069 25.7423 21.5071 21.6377 21.4706 20.8549L20.4716 20.9016ZM20.9711 37.72H26.4107V36.72H20.9711V37.72ZM26.9107 37.22V28.0934H25.9107V37.22H26.9107ZM26.9107 28.0934C26.9107 27.6075 26.9493 27.2086 27.0522 26.9583L26.1274 26.578C25.9427 27.027 25.9107 27.6026 25.9107 28.0934H26.9107ZM27.0536 26.955C27.3988 26.0981 28.1484 25.2822 29.3805 25.2822V24.2822C27.6073 24.2822 26.567 25.4868 26.126 26.5813L27.0536 26.955ZM29.3805 25.2822C30.2179 25.2822 30.7439 25.5896 31.0838 26.0878C31.4454 26.6178 31.6365 27.4243 31.6365 28.4767H32.6365C32.6365 27.3332 32.434 26.2924 31.9099 25.5242C31.364 24.7242 30.512 24.2822 29.3805 24.2822V25.2822ZM31.6365 28.4767V37.2196H32.6365V28.4767H31.6365ZM32.1365 37.7196H37.5752V36.7196H32.1365V37.7196ZM38.0752 37.2196L38.0754 27.8497L37.0754 27.8497L37.0752 37.2195L38.0752 37.2196Z" fill="black"/>
</g>
</g>
</svg>
